<?xml version="1.0" encoding="utf-8"?>
<!-- Generator: Adobe Illustrator 22.1.0, SVG Export Plug-In . SVG Version: 6.00 Build 0)  -->
<svg version="1.1" id="Warstwa_1" xmlns="http://www.w3.org/2000/svg" xmlns:xlink="http://www.w3.org/1999/xlink" x="0px" y="0px"
	 viewBox="0 0 460 82" style="enable-background:new 0 0 460 82;" xml:space="preserve">
<style type="text/css">
	.st0{fill:#005BFF;}
	.st1{fill-rule:evenodd;clip-rule:evenodd;fill:#005BFF;}
</style>
<g>
	<g>
		<path class="st0" d="M41.2,0.4C18.8,0.4,0.6,18.6,0.6,41c0,22.4,18.2,40.6,40.6,40.6S81.9,63.4,81.9,41
			C81.9,18.6,63.7,0.4,41.2,0.4z M22.3,18h5.4v3l-5.4,3.8V18z M60.2,65.4h-5.4v-19c0-3-2.4-5.4-5.4-5.4S44,43.4,44,46.4v19h-5.4v-19
			c0-3-2.4-5.4-5.4-5.4c-3,0-5.4,2.4-5.4,5.4v19h-5.4v-19c0-6,4.8-10.8,10.8-10.8c3.2,0,6.1,1.4,8.1,3.7c2-2.2,4.9-3.7,8.1-3.7
			c6,0,10.8,4.8,10.8,10.8V65.4z M68.3,41L41.2,22L14.2,41l-3.1-4.4l28.6-20c0.4-0.3,1-0.5,1.6-0.5c0.6,0,1.1,0.2,1.6,0.5l28.6,20
			L68.3,41z"/>
	</g>
	<path class="st0" d="M377.5,33.6c0-8.3-8.1-15-18-15c-9.9,0-18,6.7-18,15v29.1h7.8V35.8c0-5.6,4.5-10.1,10.1-10.1
		c5.6,0,10.1,4.5,10.1,10.1v26.9h7.8V33.6z"/>
	<path class="st0" d="M138.3,62.7V33.9c0-4.5,3.7-8.2,8.2-8.2c4.5,0,8.2,3.7,8.2,8.2v28.8h7.8V31.9c0-7.4-7.2-13.4-16-13.4
		c-5.5,0-9.7,2.3-12.1,5.9c-2.4-3.5-6.6-5.9-12.1-5.9c-8.9,0-16,6-16,13.4v30.8h7.8V33.9c0-4.5,3.7-8.2,8.2-8.2
		c4.5,0,8.2,3.7,8.2,8.2v28.8H138.3z"/>
	<path class="st0" d="M234.3,19.3c-8.9,0-16,6-16,13.4v30h7.8V34.6c0-4.5,3.7-7.5,8.2-7.5V19.3z"/>
	<path class="st0" d="M314.6,18.6c-12.8,0-22.4,9.1-22.4,22.4c0,13.3,9.6,22.4,22.4,22.4c12.8,0,22.4-9.1,22.4-22.4
		C337,27.7,327.4,18.6,314.6,18.6 M314.6,56.3c-8,0-14.6-5.1-14.6-15.3c0-10.2,6.6-15.3,14.6-15.3c8,0,14.6,5.1,14.6,15.3
		C329.1,51.3,322.5,56.3,314.6,56.3"/>
	<rect x="242.2" y="19.3" class="st1" width="7.8" height="43.4"/>
	<path class="st0" d="M263.7,62.7c-3.6,0-6.6-3-6.6-6.6c0-1.6,0.6-3.1,1.6-4.3L280,26.4h-21.1v-7.1H282c3.6,0,6.6,3,6.6,6.6
		c0,1.5-0.5,3-1.4,4.1l-21.5,25.6h23.6v7.1H263.7z"/>
	<path class="st0" d="M239.5,7c0,3.6,3,6.6,6.6,6.6c3.6,0,6.6-3,6.6-6.6c0-3.6-3-6.6-6.6-6.6C242.4,0.4,239.5,3.3,239.5,7"/>
	<path class="st0" d="M383,56.8c0,3.6,3,6.6,6.6,6.6c3.6,0,6.6-3,6.6-6.6c0-3.6-3-6.6-6.6-6.6C386,50.2,383,53.2,383,56.8"/>
	<rect x="451.5" y="0.4" class="st0" width="7.8" height="62.3"/>
	<path class="st0" d="M189.3,18.6c-12.8,0-22.4,9.1-22.4,22.4c0,13.3,9.6,22.4,22.4,22.4c12.8,0,22.4-9.1,22.4-22.4
		C211.8,27.7,202.2,18.6,189.3,18.6 M189.3,56.3c-8,0-14.6-5.1-14.6-15.3c0-10.2,6.6-15.3,14.6-15.3c8,0,14.6,5.1,14.6,15.3
		C203.9,51.3,197.3,56.3,189.3,56.3"/>
	<path class="st0" d="M423.7,18.6c-12.5,0-21.9,9.1-21.9,22.4v40.6h7.8v-23c3.7,3,8.6,4.8,14.1,4.8c12.5,0,21.9-9.1,21.9-22.4
		C445.6,27.7,436.3,18.6,423.7,18.6 M423.7,56.3c-7.7,0-14.1-5.1-14.1-15.3c0-10.2,6.4-15.3,14.1-15.3c7.8,0,14.2,5.1,14.2,15.3
		C438,51.3,431.5,56.3,423.7,56.3"/>
</g>
</svg>
